<?xml version="1.0" standalone="no"?>
<!DOCTYPE svg PUBLIC "-//W3C//DTD SVG 20010904//EN"
 "http://www.w3.org/TR/2001/REC-SVG-20010904/DTD/svg10.dtd">
<svg version="1.0" xmlns="http://www.w3.org/2000/svg"
 width="512.000000pt" height="512.000000pt" viewBox="0 0 512.000000 512.000000"
 preserveAspectRatio="xMidYMid meet">
<metadata>
Created by potrace 1.11, written by Peter Selinger 2001-2013
</metadata>
<g transform="translate(0.000000,512.000000) scale(0.100000,-0.100000)"
fill="#000000" stroke="none">
<path d="M0 2560 l0 -2560 2560 0 2560 0 0 2560 0 2560 -2560 0 -2560 0 0
-2560z m2555 1725 c-44 -51 -51 -55 -91 -55 -24 0 -44 2 -44 4 0 3 14 27 31
55 l32 51 59 0 60 0 -47 -55z m-847 -96 c47 -23 86 -74 97 -126 l7 -33 -56 0
c-51 0 -56 2 -62 25 -15 59 -97 84 -147 44 -36 -28 -50 -81 -46 -177 5 -94 25
-132 81 -146 46 -12 88 9 107 52 14 30 17 32 69 32 l54 0 -7 -32 c-10 -48 -44
-94 -90 -120 -58 -33 -174 -33 -228 0 -105 66 -137 285 -60 410 54 88 180 120
281 71z m485 15 l37 -7 0 -181 c0 -200 -7 -240 -47 -279 -74 -70 -222 -76
-295 -10 -49 43 -58 85 -58 286 l0 187 55 0 55 0 0 -174 c0 -96 5 -186 11
-204 13 -37 55 -57 104 -48 58 11 65 36 65 251 0 206 -6 192 73 179z m724
-149 c50 -82 96 -157 101 -165 5 -9 8 48 8 150 l-1 165 270 0 270 0 3 -47 3
-48 -80 0 -81 0 0 -210 0 -210 -55 0 -55 0 0 210 0 210 -74 0 -75 0 -4 33 c-2
17 -5 -77 -5 -210 l-2 -243 -58 0 -58 0 -94 157 -95 156 -3 -156 -3 -157 -54
0 -55 0 0 78 c0 42 -3 152 -6 244 -4 92 -4 174 0 183 4 13 17 15 58 13 l53 -3
92 -150z m958 136 c50 -22 87 -65 110 -125 26 -68 18 -215 -15 -276 -66 -118
-225 -146 -326 -57 -127 111 -106 380 35 454 55 29 138 31 196 4z m-1260 -246
l93 -250 -50 -3 c-28 -2 -56 -1 -63 2 -7 2 -17 25 -24 50 l-11 46 -93 0 -93 0
-15 -47 -15 -48 -62 -3 -61 -3 13 33 c7 18 50 133 96 256 l83 223 54 -3 55 -3
93 -250z m-1350 -606 c58 -16 119 -81 139 -148 31 -104 15 -226 -38 -296 -14
-18 -26 -36 -26 -38 0 -2 19 -17 41 -33 l41 -28 -38 -32 -38 -32 -56 44 c-48
38 -63 44 -104 44 -77 0 -141 42 -182 120 -15 28 -19 57 -19 145 0 102 2 113
27 157 52 87 151 125 253 97z m295 -189 c0 -189 0 -191 25 -215 17 -17 35 -25
60 -25 85 0 95 28 95 256 l0 174 55 0 55 0 0 -182 c0 -101 -5 -199 -10 -218
-11 -41 -61 -94 -103 -109 -16 -6 -56 -11 -91 -11 -86 0 -143 30 -173 90 -22
41 -23 57 -23 237 l0 193 55 0 55 0 0 -190z m680 145 l0 -45 -120 0 -121 0 3
-57 3 -58 103 -3 102 -3 0 -39 0 -39 -102 -3 -103 -3 0 -65 0 -65 118 -3 117
-3 0 -45 0 -44 -172 2 -173 3 -3 258 -2 257 175 0 175 0 0 -45z m263 33 c23
-7 60 -31 83 -53 105 -100 95 -323 -18 -405 -48 -35 -114 -50 -223 -50 l-85 0
0 260 0 260 101 0 c56 0 120 -6 142 -12z m524 -230 c50 -134 94 -251 98 -260
6 -16 0 -18 -53 -18 l-61 0 -17 55 -18 55 -91 0 -91 0 -18 -55 -17 -55 -55 0
c-36 0 -54 4 -54 13 0 6 41 123 92 260 l91 247 52 0 52 0 90 -242z m553 220
c75 -39 106 -106 88 -192 -17 -82 -97 -126 -228 -126 l-50 0 0 -90 0 -90 -55
0 -55 0 0 260 0 260 128 0 c113 0 133 -3 172 -22z m408 -226 c50 -137 92 -254
92 -261 0 -8 -17 -11 -57 -9 l-56 3 -17 50 -17 50 -89 3 -90 3 -18 -56 -17
-55 -60 0 c-32 0 -59 2 -59 5 0 4 160 434 185 498 6 13 19 17 59 17 l51 0 93
-248z m217 36 l0 -213 113 -3 113 -3 -3 -42 -3 -42 -165 0 -165 0 -3 258 -2
257 57 0 58 0 0 -212z m-847 -803 c181 -43 301 -157 338 -322 38 -173 -18
-335 -147 -426 l-48 -33 64 -46 c119 -87 175 -198 175 -348 0 -221 -133 -383
-357 -436 -91 -22 -278 -22 -361 -1 -204 54 -328 183 -355 372 -14 93 0 182
38 262 30 61 118 154 165 173 37 15 38 23 4 41 -39 20 -118 111 -145 166 -21
43 -24 61 -24 173 0 115 2 130 27 183 57 120 175 210 318 241 86 19 230 19
308 1z m-978 -805 l0 -800 -160 0 -160 0 0 605 c0 477 -3 605 -12 605 -10 0
-163 -46 -346 -104 l-23 -8 3 134 3 133 320 116 c176 64 332 117 348 118 l27
1 0 -800z"/>
<path d="M3732 4104 c-41 -28 -56 -73 -56 -160 0 -129 51 -190 136 -165 32 10
43 20 59 54 24 53 25 161 3 217 -25 63 -93 89 -142 54z"/>
<path d="M2437 3977 c-15 -46 -27 -86 -27 -90 0 -4 25 -6 55 -6 30 1 55 5 55
9 0 9 -51 170 -54 170 -1 0 -14 -37 -29 -83z"/>
<path d="M1175 3252 c-31 -6 -64 -42 -75 -81 -25 -92 0 -224 48 -250 50 -27
121 -2 143 51 20 47 18 184 -4 225 -9 17 -22 35 -27 38 -20 12 -65 21 -85 17z"/>
<path d="M2370 3079 l0 -172 49 6 c27 3 59 12 70 19 36 22 56 77 55 153 -1
113 -43 165 -134 165 l-40 0 0 -171z"/>
<path d="M2856 3113 c-14 -43 -26 -81 -26 -86 0 -4 25 -7 55 -7 30 0 55 4 55
8 0 11 -49 154 -54 159 -2 2 -16 -31 -30 -74z"/>
<path d="M3390 3169 l0 -82 66 6 c81 7 104 25 104 78 0 55 -34 79 -111 79
l-59 0 0 -81z"/>
<path d="M3837 3180 c-17 -49 -47 -145 -47 -152 0 -4 25 -8 56 -8 63 0 61 -12
19 108 -13 38 -25 61 -28 52z"/>
<path d="M3136 2070 c-129 -39 -159 -269 -47 -363 37 -31 84 -42 148 -34 92
10 147 86 147 202 0 56 -5 79 -24 115 -41 74 -133 107 -224 80z"/>
<path d="M3139 1396 c-63 -17 -104 -48 -128 -99 -59 -122 -21 -266 84 -317 87
-42 198 -27 267 38 77 72 72 262 -8 333 -53 47 -142 65 -215 45z"/>
</g>
</svg>
